<svg xmlns="http://www.w3.org/2000/svg" xmlns:xlink="http://www.w3.org/1999/xlink" x="0" y="0" version="1.1" viewBox="0 0 2141.8 1204.7" xml:space="preserve" style="enable-background:new 0 0 2141.8 1204.7"><style type="text/css">.st0{fill:#cafff2}.st1{fill:#435447}.st2{fill:#26a38b}.st3{fill:#fff}.st4{fill:#129e83}.st5{fill:#d8a64e}.st6{fill:#7ac498}.st7{fill:#edc062}.st8{fill:#6ac46a}.st9{fill:#a3ceb5}.st10{fill:#c19340}.st11{fill:#5abf83}.st12{fill:#3cc6ac}.st13{fill:#4de8ca}.st14{fill:#ffeb99}</style><switch><g><g id="Capa_2"><circle cx="1236.8" cy="603.3" r="584.6" class="st0"/></g><g id="Capa_1"><path d="M911,1144.9c-1-0.7-2.1-0.6-3.2-0.6c-8.8-0.5-17.6-0.8-26.3-1.4c-10.4-0.7-20.7-1.5-31.1-2.5 c-9.2-0.9-18.4-2.1-27.6-3.1c-3-0.4-6-0.8-9-1.2c-1.9-0.3-3.7-0.9-5.7-0.2c-3-1.3-6-0.1-9-0.2c-2.1-0.1-4.1-0.8-6-1.4 c-26.7-8.7-53.4-17.5-80.2-26.2c-23.7-7.7-47.4-15.5-70.6-24.5c-100.6-39-192.3-93-275.1-162.2c-23.1-19.3-45.3-39.5-66.4-61 c-16.3-16.7-32.3-33.7-48.4-50.6c-11.6-12.2-23.1-24.4-34.7-36.5c-2.4-2.6-4.8-5.1-5.8-8.7c-0.2-0.8-0.9-1.3-1.7-1.6 c0-1.6,0-3.2,0-4.8c0.9-0.2,1.4-0.7,1.7-1.5c0.4-1,0.7-2.1,1.3-3.1c3.1-6,9.2-9.1,16-8.1c1.1,0.2,2.2,0.4,3.3,0.8 c37.7,12.3,75.5,24.1,112.9,37.1c116.8,40.4,222,101,315.9,181.4c14.5,12.4,28.5,25.2,42.2,38.4c0.7,0.7,1.4,1.3,2.1,2 c0.9,0.9,1.9,0.9,3,0.2c3.2-2.2,6.2-4.6,8.9-7.3c11.8-12.1,18-26.5,18.3-43.5c0.5-27.3-18.3-53.4-46.8-60.6 c-10-2.5-19.9-2.4-29.9-0.1c-0.8,0.2-1.5,0.4-2.3,0.6c-2.1,0.4-2.8-0.1-3.4-2.3c-0.3-1.1-0.5-2.2-0.9-3.2 c-8.6-25.4-40.5-31.8-58.3-12.6c-0.9,0.9-1.6,2-2.5,2.9c-1.1,1.1-2.3,0.9-3.1-0.5c-0.6-1-1-2-1.5-3 c-14.1-32.5-24.6-66.2-30.8-101.2c-2.5-14.2-4.2-28.5-5.3-42.8c-1.3-17.4-1.3-34.8-0.5-52.3c0.7-15.3,2.3-30.6,4.3-45.8 c3.1-22.7,7.4-45.1,12.7-67.4c1.3-5.4,1.4-5.5,6.6-2.9c12.4,6.1,25.6,9.1,39.4,8.4c39.2-2,68.8-30.3,75.6-65.6 c0.6-3.3,0.9-6.7,1.3-10c0.1-1,0.1-1.9,0.2-2.9c0.2-1.4,1.3-2.1,2.8-1.8c0.9,0.2,1.8,0.6,2.8,0.8c20.7,5.3,38.9-8.2,42.8-26.2 c3.3-15.4-4.4-31.5-18.9-38.3c-6.3-3-6-2.2-3.1-8.5c17.2-36.9-4.8-78-41.9-86.7c-5.5-1.3-11-2-16.6-1.7c-0.8,0-1.6,0.1-2.4,0.1 c-2.1-0.1-2.8-1.1-2-3.2c0.5-1.2,1.1-2.3,1.6-3.5c16.2-34.6,33.5-68.7,51.7-102.3c26.7-49.4,55.1-97.8,85.8-144.8 c1.7-2.7,3.7-5.2,5.8-7.5c0.6,0,1.3,0,1.9,0c17.6,25.7,34.5,51.9,50.7,78.6c1.3,2.2,3.6,3.5,4.3,6.1c0.6,2.2,2.2,4.2,3.4,6.3 c16.4,27.1,32.2,54.5,47.4,82.3c0.8,1.4,1.5,2.8,2.1,4.3c0.5,1-0.5,2.3-1.6,2.4c-0.6,0-1.3,0-1.9-0.1 c-16.7-1.2-30.3,12.4-29.5,28.7c0.6,13.6,12.1,25.2,25.7,25.8c10.7,0.4,18.9-3.9,24.8-12.7c0.6-0.9,1.2-1.9,1.8-2.8 c0.6-0.8,1.9-0.8,2.5,0c0.8,1.2,1.5,2.4,2.2,3.7c12.3,23.9,24,48.1,35.1,72.5c17,37.3,32.6,75.1,46.2,113.7 c0.2,0.6,0.4,1.2,0.7,1.8c1,2.5,1.3,2.6,3.3,1.1c9.4-7.1,19-14.1,28.7-20.8c36.5-25.3,74.7-47.6,114-68.1 c31.5-16.4,63.6-31.5,96.1-45.7c1.6-0.7,3.4-0.9,4.5-2.5c-0.6-2.1-2.6-2.6-4.1-3.6c-6.4-4.3-13.3-7.6-20.6-10 c-1.1-0.3-2.2-0.6-3.2-1.1c-1.7-0.8-2.6-2.7-2.1-4.4c0.5-1.8,2-2.9,3.9-2.8c1.1,0.1,2.2,0.3,3.3,0.6c11.3,2.9,21.6,7.8,31.2,14.4 c4.1,2.8,2.9,2.7,7.3,0.8c81.3-34.1,164.6-62.4,249.2-86.9c44.4-12.9,89-24.6,134-35.1c16-3.7,32.1-7.1,48.2-10.7 c6.8-1.5,6.8-1.5,5.6,5.2c-2.7,14.6-5.7,29.2-8.7,43.7c-4.1,19.6-8.5,39-13.1,58.5c-0.3,1.2-0.6,2.5-0.6,3.8 c0,1.3-0.3,2.4-0.9,3.6c-0.6,1.1-0.8,2.4-1.1,3.6c-9.7,39.9-20.2,79.6-31.6,119.1c-0.4,1.5-0.9,3.1-1.5,4.6 c-0.5,1.2-1.6,1.5-2.8,1c-0.9-0.4-1.7-0.9-2.5-1.4c-10.2-5.9-21.1-8.9-32.8-9.7c-4.4-0.3-4.8-1-2.5-4.8 c5.8-9.3,3.9-23.3-7.8-29.9c-9.5-5.3-21.4-2.6-27.7,6.3c-6.3,8.9-4.9,21,3.3,28.2c1,0.8,2.1,1.5,3,2.3c1.5,1.2,1.4,2.6-0.1,3.5 c-1,0.6-2,1-3,1.5c-19.5,9.8-32.4,25.1-38.3,46.2c-11.2,40.1,14.8,82,55.6,89.8c2.2,0.4,4.4,0.7,6.6,1c0.9,0.1,1.9,0.2,2.8,0.4 c1.3,0.3,2,1.2,1.6,2.5c-0.4,1.5-0.9,3.1-1.4,4.6c-6.3,16.6-12.4,33.3-18.9,49.8c-17.3,44.1-36.3,87.4-57.6,129.7 c-2.9,5.7-5.5,11.5-9,16.9c0,0,0.2,0.1,0.2,0.1l-0.1-0.2c0.5,0.4,1.1,0.6,1.7,0.2c1-0.8,2.1-1.5,3.1-2.3 c53.8-42.6,111.5-79.2,173-109.7c27.5-13.7,55.7-25.7,84.2-37.1c25.1-10,50.1-20.2,75.1-30.3c1.3-0.5,2.7-1.1,4-1.6 c7.9-2.5,15,0.7,18.5,8.4c0.2,0.4,0.5,0.8,0.8,1.1c0,3.5,0,7,0,10.6c-2.7,4.3-6,8.1-9.3,12c-21.4,25.9-42.6,51.9-64.3,77.6 c-58.8,69.8-126.2,130.1-201.9,181c-10.5,7-21.2,13.7-31.9,20.5c-0.9,0.6-1.9,1.1-2.8,1.8c-0.3,0.2-0.4,0.8-0.6,1.2 c0.3,0,0.6,0.2,0.9,0.1c3.8-0.6,7.6-1.2,11.4-1.8c10.6-1.5,21.2-3.1,31.8-4.5c10.1-1.3,20.3-2.5,30.5-3.4 c9.5-0.9,19.1-1.6,28.7-2.2c22-1.5,44.1-1.9,66.2-2.3c25.3-0.5,50.5-1,75.8-1.6c2.2,0,4.5-0.1,6.6,0.7c5.9,1.9,9.3,6.1,10.4,12.1 c1.1,5.8-0.9,10.7-5.5,14.5c-1.1,0.9-2.4,1.6-3.6,2.3c-31.4,17.9-62.7,35.9-94.3,53.5c-75.8,42.3-155.9,73.8-240.2,94.6 c-26.7,6.6-53.6,12.1-80.8,16.4c-16.7,2.7-33.5,4.9-50.4,6.7c-32.8,3.6-65.7,5.1-98.6,5.6c-24,0.4-48,1.1-72,1.6 c-8.6,0.2-17.3,0.2-25.9,0.2c-1.6,0-3.1,0.4-4.7,0.8c-19.3,5.9-38.7,10.9-58.5,15.1c-15.3,3.2-30.7,6-46.2,8.3 c-14.6,2.2-29.2,3.9-43.8,5.3c-10.7,1-21.4,1.6-32.1,2.3c-7.7,0.5-15.3,0.9-23,1.3c-0.8,0-1.6,0.1-2.3,0.6 C940.4,1144.9,925.7,1144.9,911,1144.9z" class="st1"/><path d="M1379.9,605.9c-0.2,0.8-0.2,1.5,0.3,2.1c-0.7-0.3-1.5-0.7-2.3-0.2c-1.2,0.8-2.4,1.6-3.6,2.4 c-11.2,8-22.4,15.9-33.6,23.9c-15.8,11.2-31.5,22.4-47.3,33.6c-1,0.7-2.1,1.5-3.2,2.1c-1.3,0.7-2.7-0.2-2.7-1.6 c0-0.6,0-1.3,0.1-1.9c1.4-9.7,2.7-19.3,4.1-29c1.4-10.1,2.9-20.2,4.3-30.4c0.2-1.6,0.4-3.2,0.2-4.8c-0.6-5.7-6.8-9-11.8-6.4 c-2.9,1.5-4.6,4-4.7,7.3c-0.1,3.7-0.1,7.4-0.2,11c-0.5,21.1-1,42.2-1.5,63.3c0,1.3-0.1,2.6,0.1,3.8c0.5,2.9,3.3,4.2,5.8,2.7 c1.1-0.7,2-1.5,3-2.3c29.9-23.8,59.8-47.6,89.7-71.4c1.1-0.9,2-2.1,3.5-2.3C1380,607.2,1379.9,606.6,1379.9,605.9 c0.1,0.1,0.2,0.1,0.3,0.2C1380.1,606,1380,605.9,1379.9,605.9z" class="st2"/><path d="M1383.4,604.7c0.1,0-0.4-0.7,0.2-0.1c-0.3,0.2-0.3,0.1-0.2-0.1C1383.3,604.5,1383.4,604.6,1383.4,604.7z" class="st3"/><path d="M1222.4,448.1l0.2-0.2C1222.5,447.8,1222.5,448.1,1222.4,448.1c-0.5,0.2-1.1,0.4-1.8,0.5 c-0.1,1.3-1.6,2-1.3,3.4c-2,0.3-2.6,2.2-3.6,3.5c-23,29.9-45.9,59.9-68.8,89.8c-0.8,1-1.5,2.1-2.2,3.2c-0.7,1.3-0.3,2.5,0.6,3.5 c0.9,1,2,1.5,3.4,1.5c1.9-0.1,3.8-0.1,5.7-0.2c11.5-0.5,23-1,34.5-1.5c11.5-0.5,23-0.8,34.5-1.3c1.6-0.1,3.2-0.2,4.7-0.6 c3.4-0.9,5.6-4,5.8-7.4c0.2-5.1-4-9.2-9.2-8.7c-3.2,0.3-6.3,1-9.5,1.5c-13.2,2.1-26.5,4.2-39.7,6.4c-4.6,0.7-9.1,1.5-13.7,2.2 c-0.9,0.1-2,0.2-2.6-0.7c-0.7-0.9-0.3-1.8,0.2-2.7c0.8-1.2,1.6-2.4,2.4-3.6c18.1-26.5,36.2-53,54.3-79.6c1.2-1.7,2.6-3.2,3.1-5.3 c1.3-0.8,1.9-1.8,1.3-3.3C1221.1,448.4,1221.7,448.2,1222.4,448.1z" class="st2"/><path d="M1328.9,770.3c-0.5-0.2-1-0.5-1.5-0.7c-2.3-5.5-2.6-5.7-8-3.7c-0.2,0.1-0.3,0.1-0.4,0.2 c-36.4,13.5-72.1,28.6-107.6,44.2c-0.9,0.4-1.7,0.8-2.6,1.3c-0.7,0.4-0.8,1-0.1,1.5c1.3,0.9,2.7,1.7,4,2.6c1,0.6,2.1,0.8,3.2,0.2 c0.7-0.4,1.5-0.6,2.2-0.9c34-14.7,67.8-30,100.9-46.6c4.6-2.3,4.6-2.3,8.1,1c0.1,0.1,0.3,0.1,0.4,0.2c0.3,0.7,0.9,0.8,1.5,0.7 c0.2,0.6,0.5-0.4,0.3,0.2c-0.1,0.3-0.3,0.4-0.5,0.2C1328.4,770.2,1329.1,770.9,1328.9,770.3z" class="st2"/><path d="M1422.3,384.9c0.7,0.2,1.5,0.3,2.2,0.4c0.1,0,0.3-0.1,0.4-0.2c0.1-0.3,0-0.5-0.5-0.5 c-0.8,0.1-1.5,0.2-2.2,0.3c-0.2-0.7-0.5-1.2-1.2-1.3c-3.2-0.5-6.3-1.1-9.5-1.5c-11.4-1.5-22.7-0.4-33.7,2.8 c-16.2,4.8-29.2,14.3-39.9,27.1c-11.2,13.4-18.7,29-24.5,45.3c-0.3,0.9-0.5,1.9-0.5,2.8c0,2.2,1.4,3.9,3.6,4.5 c1.8,0.5,4-0.2,5-1.9c0.6-0.9,1-2,1.3-3.1c0.7-2.1,1.3-4.3,2-6.4c4.2-12.8,9.6-25.1,17.5-36.1c15.9-22,37.4-33.2,64.6-33.5 C1412.1,383.7,1417.2,384.5,1422.3,384.9z" class="st4"/><path d="M1246.1,329.9c-0.2-0.2-0.3-0.4-0.5-0.6c0,0-0.2,0.1-0.3,0.1c0.3,0.1,0.6,0.3,1,0.4c1,1.4,2.6,1.7,4,2.4 c6,3.1,11.6,6.7,16.8,11c16.2,13.4,25.5,30.6,27.7,51.4c1.4,13.3,0.2,26.5-3.2,39.5c-1.2,4.5-2.5,8.9-3.8,13.4 c-0.3,1.1-0.7,2.1-0.9,3.2c-0.6,2.6,0.7,5,3,5.8c2.4,0.8,5.1-0.2,6-2.6c0.8-1.9,1.2-4,1.7-6c3.7-15.3,5.9-30.7,4.4-46.6 c-1.2-12.4-4.4-24.2-10.7-35c-9.8-17-24.3-28.5-42.4-35.9C1248,330.1,1247.1,329.9,1246.1,329.9z" class="st4"/><path d="M735.6,1078.3c0.1,0.3,0,0.4-0.1,0.2c0.1,0,0.2,0,0.3,0c-0.4-0.3-0.8-0.6-1.1-0.9 c-15.1-14.1-29.7-28.7-43.5-44c-4.2-4.6-8.3-9.3-12.3-14.1c-1.7-2-1-3.5,1.6-4c0.5-0.1,1-0.1,1.4-0.2c6.1-0.7,11.9-2.5,17.5-5 c4.2-1.9,4.2-2,0.9-5.3c-11.6-11.2-23.5-22.1-35.7-32.7C569.6,890,463,828,344.3,786.9c-37.4-13-75.3-24.8-112.9-37.1 c-1.1-0.3-2.2-0.6-3.3-0.8c-5-0.7-8.7,1.4-11.3,5.6c-2.5,4.1-2.3,8.2,0.4,12.2c1,1.4,2.3,2.7,3.5,4c14.9,15.7,29.7,31.4,44.6,47 c13.4,14,26.6,28.1,40.2,41.9c18.8,19,38.5,37,58.9,54.3c91.7,77.6,194.1,136.4,307.5,176.2c25.9,9.1,52.2,17.3,78.3,25.9 c14.9,4.9,29.8,9.7,44.7,14.6c1.1,0.3,2.1,0.6,3.2,0.8c0.3,0.1,0.6-0.2,0.9-0.2c-0.1-0.3-0.1-0.7-0.3-0.8 c-0.7-0.6-1.5-1.2-2.3-1.8c-12.7-9.2-25-18.9-37-29c-1.8-1.5-3.8-2.9-5.8-4.2c-16.5-10.4-33-20.9-49.5-31.3 c-91-57.5-182-114.9-273-172.4c-1.1-0.7-2.2-1.4-3.2-2.1c-0.9-0.6-1.1-1.5-0.6-2.5c0.4-0.8,1.5-1.1,2.5-0.6 c1.9,1.1,3.8,2.3,5.7,3.5c98,61.9,196,123.8,294.1,185.7c1.2,0.8,2.5,1.5,3.7,2.3C734,1078.4,734.8,1078.6,735.6,1078.3z" class="st5"/><path d="M951.2,762.8c0-49.3,0-98.5,0-147.8c0-21,0-41.9,0-62.9c0-1.4,0-2.9-0.1-4.3c0-0.5-0.1-1.1-0.7-1.1 c-0.4,0-0.9,0.2-1.2,0.5c-0.9,0.9-1.8,1.8-2.7,2.8c-16,17-30.8,35.1-44.3,54.2c-32.9,46.6-57.4,97.4-74.9,151.7 c-14.4,44.6-23.7,90.2-29,136.7c-2,17.6-3.5,35.3-4.3,53.1c-1,21.9-1.5,43.8-0.6,65.7c0.6,15.5,1.2,31,2.5,46.5 c0.9,11.5,2.3,22.9,3.6,34.3c1.1,10.2,2.6,20.3,4.5,30.4c0.3,1.6-0.4,4.1,1.6,4.6c1.4,0.4,2.5-1.7,3.6-2.9 c21.5-21.9,43-43.8,64.6-65.7c24.3-24.8,48.6-49.6,72.9-74.4c5.5-5.6,4.5-3.3,4.5-11.2C951.2,902.9,951.2,832.9,951.2,762.8z" class="st6"/><path d="M1748,908.2c0,0.1,0,0.3,0,0.4c-4.6,0-9.3,0-13.9,0c-14.7,0-29.4,0.6-44.1,1.3c-17.9,0.9-35.7,2.4-53.6,4.3 c-15.7,1.7-31.4,3.7-47.1,6.2c-21.2,3.3-42.2,7.4-63.1,12.1c-42.9,9.7-85,22.2-126.3,37.6c-2.5,0.9-4.5,2.2-6.4,4.1 c-6.5,6.4-13,12.8-19.7,19c-31,28.3-65,52.3-101.8,72.4c-1.1,0.6-2.3,1.2-3.4,1.8c-0.5,0.3-0.8,0.8-1.1,1.2c0.5,0,0.9,0,1.4-0.1 c1.2-0.3,2.5-0.7,3.7-1c33.1-9.1,66.3-18.2,99.4-27.3c59.9-16.5,119.8-33,179.8-49.5c12.3-3.4,24.7-6.7,37-10.1 c0.9-0.2,1.9-0.5,2.8-0.5c0.9,0,1.4,0.7,1.6,1.5c0.1,0.7-0.3,1.4-0.8,1.6c-1.1,0.5-2.4,0.9-3.6,1.3 c-51.1,14.1-102.3,28.2-153.4,42.2c-61.9,17-123.9,34.1-185.8,51.1c-2.1,0.6-4.2,1.4-6.3,2.4c-19.7,9.2-39.8,17.5-60.4,24.6 c-1.4,0.5-2.7,1-4,1.5c-0.2,0.1-0.4,0.4-0.6,0.6c0.2,0.2,0.4,0.4,0.6,0.4c4,0,8-0.1,12-0.1c24.3-0.5,48.6-1.2,72.9-1.6 c19.5-0.3,39-0.9,58.5-2.2c16-1,31.9-2.5,47.8-4.4c15.1-1.8,30.1-3.8,45.1-6.2c26-4.3,51.8-9.6,77.5-15.9 c83.6-20.8,163.1-52,238.4-93.9c31.7-17.7,63.1-35.8,94.7-53.7c1-0.6,2-1.1,2.9-1.8c4-3,5.5-7.5,4.1-12.3 c-1.4-4.8-5.2-7.9-10-8.4c-1.1-0.1-2.2,0-3.4,0c-8.8,0.2-17.6,0.4-26.4,0.6C1778.1,907.7,1763,908,1748,908.2z" class="st7"/><path d="M1014.1,701.6c0,29.9,0,59.8,0,89.7c0,39,0,78.1,0,117.1c0,1.6,0.1,3.2,0.2,4.8c0,0.7,0.9,1,1.4,0.5 c0.9-0.9,1.9-1.7,2.8-2.6c19.4-19.7,38.8-39.5,58.2-59.2c20.5-20.9,41-41.8,61.5-62.7c9.5-9.7,19-19.4,28.6-29.1 c1.4-1.5,2.3-2.9,1.9-5.1c-0.3-1.5-0.3-3.2-0.4-4.8c-1.2-19,3.3-36.5,13.6-52.5c0.3-0.4,0.5-0.8,0.8-1.2c1.3-2.1,1.3-2.2-0.6-3.4 c-0.8-0.5-1.6-1-2.4-1.6c-8.2-5.4-15.8-11.5-22.7-18.4c-35.7-35.1-50.9-85.3-40.8-133.8c8.9-43.1,32.9-75.7,70.7-98.2 c0.8-0.5,1.7-1,2.5-1.4c1.1-0.6,1.6-1.5,1.6-2.7c0-0.8,0-1.6,0-2.4c0-16.2,0-32.3,0-48.5c0-4.9,0-4.9-4.7-2.7 c-0.7,0.3-1.4,0.7-2.1,1.1c-22.4,11.2-44.6,23-66.4,35.5c-34.3,19.7-67.4,41.1-98.8,65.2c-5.4,4.2-4.7,2.7-4.7,9.4 C1014.1,563.8,1014.1,632.7,1014.1,701.6z" class="st8"/><path d="M1279.3,856c63.8,0,127.7,0,191.5,0c2.7,0,5.4-0.4,8.1,0.4c0.7,0.2,1.2-0.1,1.6-0.7c0.7-1.1,1.4-2.1,2.1-3.2 c8.5-13.7,16.7-27.6,24.6-41.7c29.7-53.3,55-108.7,77.7-165.3c2-4.9,2-4.8-3.5-4.8c-62.9,0-125.7,0-188.6,0c-1.1,0-2.2,0-3.4,0 c-1,0-1.8,0.4-2.4,1.3c-0.5,0.8-1,1.6-1.5,2.5c-13.7,22.5-32.1,40.1-55.1,52.9c-4.4,2.4-3.9,1.9-1.8,5.9 c9.6,17.8,12.8,36.8,9.1,56.7c-8.3,45.4-50.9,76.1-97,69.3c-29.2-4.3-56-24.3-67.4-54.2c-1.2-3.3-2.1-6.7-3.2-10.1 c-0.5-1.8-1.1-1.9-2.6-0.6c-0.9,0.9-1.8,1.8-2.7,2.7c-5.3,5.4-10.5,10.8-15.8,16.1c-22.2,22.6-44.4,45.2-66.6,67.8 c-1.1,1.1-2.2,2.3-3.2,3.5c-0.4,0.5,0,1.3,0.7,1.3c1.6,0.1,3.2,0.1,4.8,0.1C1149.8,856,1214.5,856,1279.3,856z" class="st9"/><path d="M1882.4,619.3c-0.4-8.8-9-13.9-15.2-11.2c-1.3,0.6-2.7,1-4,1.6c-27.4,11.1-54.8,22.2-82.3,33.1 c-50.6,20.1-99.4,44-146,72.1c-39.3,23.6-76.6,49.9-112.2,78.8c-2.3,1.8-4.1,3.9-5.5,6.5c-3,5.7-6.1,11.2-9.3,16.8 c-24.8,44-52.4,86-84.9,124.8c-0.7,0.8-1.7,1.5-1.7,2.7c1.5,0.5,2.2-0.9,3.2-1.4c0.6-0.3,1-0.7,1.6-1.1 c49.3-36.1,98.6-72.2,147.9-108.2c33-24.2,66.1-48.4,99.1-72.5c1.3-0.9,2.6-1.8,4-2.7c0.8-0.5,1.6-0.1,2.1,0.5 c0.6,0.7,0.6,1.6-0.1,2.2c-1,1-2.2,1.9-3.3,2.7c-84.7,62-169.4,123.9-254,185.9c-4.8,3.5-9.6,7-14.3,10.5 c-1.2,0.8-2.4,1.6-3.2,2.8c-0.2,0.2-0.2,0.5-0.4,0.8c0.3,0.1,0.6,0.2,0.9,0.2c1.2-0.4,2.4-0.8,3.6-1.2 c15.3-5.5,30.8-10.7,46.4-15.4c33.2-10.1,66.8-18.5,100.9-25c3.9-0.7,7.3-2.1,10.6-4.1c15.2-9.2,30.2-18.7,44.9-28.7 c74.5-50.5,140.7-110.2,198.6-179.1c22.9-27.3,45.5-54.9,68.3-82.4c0.8-1,1.7-2,2.4-3C1881.7,623.2,1882.5,621.2,1882.4,619.3z" class="st10"/><path d="M1200.6,947.1c-68.5,0-136.9,0-205.4,0c-1.1,0-2.3,0.1-3.4,0c-2.5-0.3-4.1,0.8-5.8,2.5 c-11,11.4-22.1,22.6-33.2,33.9c-19.6,20-39.2,39.9-58.8,59.9c-0.6,0.6-1.1,1.2-1.6,1.8c-0.4,0.5-0.1,1.4,0.6,1.5 c1.6,0.1,3.2,0.1,4.8,0.1c131.3,0,262.7,0,394,0.1c3.5,0,6.4-0.9,9.4-2.8c40.3-25.7,76.4-56.3,108.1-92.1 c1.1-1.3,2.6-2.3,3.1-4.1c-1.6-1.5-3.6-0.8-5.4-0.8C1338.1,947.1,1269.3,947.1,1200.6,947.1z" class="st11"/><path d="M1556.5,305c0-17.6,0-35.2,0-52.8c0-5.8,0.4-5.9-5.3-4.3c-63.9,17.8-127.1,38-189.3,60.8 c-27,9.9-53.8,20.4-80.3,31.5c-1.3,0.6-2.6,1.2-3.9,1.8c-0.4,0.2-0.7,0.7-0.3,1.2c0.8,0.8,1.6,1.6,2.4,2.4 c5.7,5.4,10.6,11.5,14.5,18.4c9.8,16.9,12.8,35.3,11.8,54.5c-0.1,2.7-0.4,5.4-0.6,8.1c-0.1,2,0.1,2.3,1.7,3 c3.4,1.3,6.9,2.6,10.3,3.9c1,0.4,1.9,0.1,2.4-0.9c0.5-0.8,0.9-1.7,1.4-2.5c3.8-6.9,8-13.5,13-19.5c9.3-11.3,20.3-20.4,33.9-26 c22.2-9.2,44.6-8.5,67-0.7c0.9,0.3,1.8,0.7,2.6,1.2c1.5,1,2,3.1,1.3,4.7c-0.7,1.5-2.2,2.5-3.8,2.3c-0.9-0.1-1.8-0.5-2.8-0.7 c-11.5-3.2-23.2-4.5-35.1-3.1c-15.4,1.9-28.9,7.8-40.4,18.3c-9.3,8.4-16,18.6-21.4,29.8c-2.8,5.9-2.9,4.6,2.4,8 c27.2,17.5,46.9,41.2,58.8,71.3c0.8,2,1.2,4.3,2.6,6.1c2.7-0.3,3.8-2.7,5.4-4.3c21.6-21.9,43.1-43.8,64.6-65.7 c3.7-3.8,7.3-7.6,11.1-11.3c1.4-1.4,2-2.6,1.3-4.6c-1.5-3.9-1.7-8.1-1.6-12.3c0.2-15.7,12.5-30.8,29.7-33.3 c5-0.7,9.9-0.5,14.7,0.9c2.2,0.6,3.8,0.5,5.5-1.3c8.2-8.5,16.5-17,24.8-25.4c1.1-1.1,1.7-2.3,1.6-3.8c0-1.3,0-2.6,0-3.8 C1556.5,339.5,1556.5,322.3,1556.5,305z" class="st6"/><path d="M1489.3,636.9c30.9,0,61.8,0,92.6,0c1.3,0,2.6,0,3.8,0c1.6,0.1,2.8-0.5,3.3-2.2c0.1-0.5,0.4-0.9,0.6-1.3 c5.6-14.8,11.1-29.6,16.7-44.4c0.3-0.7,0.5-1.5,0.7-2.3c0.1-0.7-0.3-1.2-1-1.4c-2.7-0.5-5.4-0.8-8-1.4 c-36.5-8.4-59.6-40.8-59.1-74.4c0.5-28.7,13.3-50.4,37.6-65.6c1.5-0.9,3.9-1.2,4.3-2.8c0.5-1.9-2-2.9-3-4.4 c-6-8.5-7.1-17.4-2.4-26.7c4.7-9.3,12.6-13.9,23-13.7c16.2,0.3,28,15.5,23.4,32.2c-0.4,1.4-0.9,2.7-1.4,4.1 c-0.2,0.6,0.2,1,0.7,1.1c1.2,0.3,2.5,0.6,3.8,0.7c8.7,1,16.9,3.6,24.6,7.5c4.7,2.4,4.2,1.8,5.6-2.6c0.1-0.3,0.1-0.6,0.2-0.9 c7.3-25.2,14.2-50.5,20.7-75.9c3.3-13,6.5-26,9.7-39.1c0.7-2.9,0.4-3.3-2.7-3.3c-0.3,0-0.6,0-1,0c-24.8,0-49.6,0-74.4,0 c-2.6,0-4.5,0.8-6.3,2.6c-22.1,22.7-44.3,45.2-66.5,67.9c-3,3.1-3,3,0.5,5.7c11.6,8.8,16.8,20.4,14.3,34.8 c-2.6,14.8-11.7,24.5-26.3,28c-14.5,3.5-26.8-1.2-36.2-12.9c-0.7-0.9-1.3-1.8-2-2.7c-0.6-0.8-1.3-0.7-2-0.1c-0.7,0.7-1.4,1.3-2,2 c-11.9,12.1-23.8,24.2-35.6,36.3c-14,14.3-28,28.6-42,42.8c-1.9,1.9-2.6,3.6-1.7,6.3c2.5,8.1,3.8,16.5,4.5,25 c2.1,26.5-2.1,52-13.6,76.1c-2.7,5.6-2.5,5.3,3.2,5.3C1426.9,636.9,1458.1,636.9,1489.3,636.9z" class="st8"/><path d="M1204.3,943.3c68.9,0,137.9,0,206.8,0c6.7,0,4.8,1,9.6-4.5c0.5-0.6,1-1.2,1.5-1.8 c19.3-23.1,36.8-47.6,53.1-72.9c0.6-0.9,1.2-1.9,1.7-2.9c0.4-0.7,0-1.3-0.7-1.3c-1.6-0.1-3.2-0.1-4.8-0.1c-130.5,0-261,0-391.5,0 c-1.1,0-2.2,0.1-3.4,0c-1.5-0.1-2.8,0.4-3.8,1.5c-1,1.1-2,2-3,3.1c-7.6,7.8-15.2,15.5-22.8,23.3c-17.2,17.6-34.5,35.1-51.7,52.7 c-0.6,0.7-1.8,1.2-1.5,2.2c0.3,1.2,1.6,0.7,2.5,0.7c1.3,0.1,2.6,0,3.8,0C1068,943.3,1136.1,943.3,1204.3,943.3z" class="st6"/><path d="M803.3,811.8c-0.1,0-0.3,0-0.4,0c0-6.9,0-13.8,0-20.6c0-5.3-0.1-5.3-3.9-9.1 C731.9,715,664.8,647.9,597.8,580.8c-0.9-0.9-1.8-1.8-2.7-2.7c-0.8-0.8-1.6-1.6-1.6-2.8c0-1.3-0.8-1.5-1.8-1.8 c-5-1.2-9.9-2.6-14.6-4.7c-1.3-0.6-2.6-1.2-3.9-1.8c-1.4-0.6-1.9-0.3-2.4,1.3c-0.2,0.6-0.4,1.2-0.5,1.8 c-2.3,11-4.7,21.9-6.8,32.9c-3,15.7-5.3,31.5-7,47.4c-1.2,11.3-2.1,22.6-2.5,34c-0.2,6.2-0.7,4.5,3.5,8.7 c35.6,35.7,71.2,71.3,106.9,106.9c0.9,0.9,1.8,1.8,2.8,2.7c0.7,0.6,1.4,0.4,1.9-0.5c0.6-1.1,1.1-2.3,1.8-3.4 c6-10.2,18-15.1,29.3-12.3c10.8,2.7,18.7,11.5,20,22c1.4,11.7-3.6,21.8-13.7,27.4c-3.9,2.2-4,2.2-0.9,5.2 c27.4,27.4,54.7,54.7,82.1,82.1c0.8,0.8,1.6,1.6,2.5,2.3c0.5,0.4,1.4,0.2,1.5-0.5c0.2-0.8,0.3-1.6,0.4-2.4 c0.9-13.2,2.3-26.4,3.9-39.6c1.7-14,3.8-27.9,6.4-41.7c0.8-4.3,1.3-8.5,1.2-12.9C803.2,823,803.3,817.4,803.3,811.8z" class="st8"/><path d="M803.9,374c0.1,0,0.2,0,0.3,0c0,4.6,0,9.3,0,13.9c0.2,38.1,0.4,76.1,0.6,114.2c0.1,11.5,0.2,23,0.4,34.5 c0,1-0.6,2.5,0.8,2.9c0.9,0.3,1.5-0.9,2.2-1.5c0.7-0.6,1.4-1.3,2-2c51.6-51.6,103.2-103.2,154.8-154.8c0.9-0.9,1.8-1.8,2.7-2.7 c0.9-0.9,1.2-1.8,0.7-3c-0.3-0.7-0.7-1.5-1-2.2c-11.5-25.5-23.6-50.7-36.4-75.6c-0.4-0.9-0.9-1.7-1.4-2.5c-0.4-0.7-1-0.7-1.5-0.1 c-0.6,0.7-1.2,1.5-1.9,2.2c-7.7,8.5-17.4,12-28.5,10.2c-16.9-2.8-26-17.2-26-30.6c0-16,12.1-28.8,26.3-30.7 c1.3-0.2,2.5-0.4,3.8-0.6c0.8-0.1,1-0.7,0.8-1.4c-0.2-0.6-0.5-1.2-0.8-1.7c-3.1-5.6-6.2-11.2-9.3-16.8 c-12-21.5-24.5-42.8-37.2-63.8c-0.7-1.1-1.4-2.2-2.1-3.2c-0.3-0.4-0.9-0.4-1.3-0.1c-0.7,0.6-1.5,1.2-2.1,1.9 c-14.7,14.7-29.4,29.4-44.2,44.1c-2,2-2.8,4.1-2.7,6.8c0.2,6.9,0.2,13.8,0.3,20.6c0.1,13.9,0.2,27.8,0.2,41.8 C803.5,307.2,803.7,340.6,803.9,374z" class="st8"/><path d="M805.7,679.4c0.2,0,0.4,0,0.6,0c0,21.3,0,42.5,0,63.8c0.1,20.2,0.2,40.3,0.4,60.5c0,2.6,0.2,5.1,0.3,7.7 c0,0.3,0.2,0.8,0.4,0.8c0.5,0.1,0.7-0.4,0.8-0.8c0.3-1.1,0.6-2.2,0.8-3.3c3.3-14.8,7.3-29.5,11.8-44 c14.5-47.5,34.3-92.6,60.4-134.9c20.9-33.9,45.4-65,73.6-93.2c16.7-16.8,34.6-32.3,53.2-47c1-0.8,2-1.6,3-2.4 c0.9-0.7,1-1.6,0.7-2.6c-0.4-1.2-0.8-2.4-1.3-3.6c-6.8-19.5-14.1-38.7-22-57.8c-5.2-12.7-10.7-25.3-16.1-38 c-1.5-3.5-1.6-3.5-4.5-0.7c-1,1-2,2-3.1,3.1c-51,51-102,102-153,153c-1.5,1.5-2.9,3-4.4,4.4c-1.7,1.5-2.3,3.2-2.2,5.5 c0.2,7.7,0.1,15.4,0.2,23c0.1,28,0.3,56,0.4,84C805.8,664.4,805.7,671.9,805.7,679.4z" class="st11"/><path d="M1087.6,1050.6c-1,0-1.9,0-2.9,0c-64.3,0-128.6,0-192.9-0.1c-3.4,0-5.9,0.9-8.4,3.4 c-22.2,22.8-44.5,45.5-66.8,68.2c-2.2,2.3-4.5,4.6-6.7,6.9c-0.4,0.5-0.9,0.9-0.8,1.6c0.1,0.9,0.9,0.7,1.5,0.9 c1.4,0.3,2.8,0.6,4.2,0.8c21.5,3.2,43.2,5.4,64.9,6.7c21.1,1.3,42.2,1.7,63.3,1.5c27.7-0.3,55.3-1.9,82.8-4.9 c15.9-1.8,31.7-4,47.5-6.7c29.2-5,57.9-11.7,86.2-20.4c43.6-13.3,85.3-31.1,124.6-54.1c1.5-0.9,3.2-1.3,4.2-3 c-1.6-1.5-3.6-0.7-5.3-0.7C1217.9,1050.6,1152.7,1050.6,1087.6,1050.6z" class="st9"/><path d="M789.2,982.3c0.1-5.2,0.2-11.4,0.5-17.7c0.4-9.9,0.4-19.8,1.3-29.7c0.2-1.9-0.4-3.3-1.8-4.6 c-3.2-2.9-6.1-6.1-9.2-9.1c-26.4-26.4-52.7-52.7-79-79.1c-2-2-4-3-7-3c-17,0-27.3-13.7-26.8-26.6c0.1-3.3-0.9-5.5-3.2-7.4 c-0.1-0.1-0.2-0.2-0.3-0.3c-34.8-34.8-69.7-69.7-104.5-104.5c-0.7-0.7-1.4-1.4-2-2c-0.3-0.3-0.7-0.7-1-1c-0.5-0.4-0.8-1-1.6-0.9 c-0.8,0.2-0.7,1-0.7,1.6c-0.1,0.8,0,1.6,0,2.4c-0.3,22.8,1.6,45.4,5.3,67.8c5.7,34.9,15.6,68.5,29.4,101c0.5,1.2,1,2.4,1.6,3.5 c0.4,0.8,1.2,0.9,2,0.3c0.8-0.7,1.6-1.6,2.4-2.3c10-8.4,21.4-11.3,34.1-8.3c13.2,3.1,22.3,11.4,27.2,24.1c1.7,4.5,1.4,3.8,5.4,3 c7.5-1.4,15-1.7,22.4-0.5c33.6,5,60.4,35.5,55.5,74c-3.4,27.2-24.1,49.3-51,55.3c-0.9,0.2-1.9,0.4-2.8,0.7 c-0.8,0.2-1,0.8-0.6,1.4c0.8,1,1.6,2,2.5,2.9c11.1,12.6,22.6,24.8,34.6,36.6c23.2,22.8,47.7,44.1,73.9,63.3 c1.2,0.9,2.3,1.7,3.5,2.5c0.4,0.3,0.9,0.4,1.3,0c0.2-0.2,0.2-0.6,0.2-0.9c-0.7-4.4-1.4-8.8-2.1-13.3c-2.2-14.2-3.9-28.5-5.2-42.8 c-1-10.7-1.6-21.4-2.3-32.1C789.7,1018.9,789.3,1001.1,789.2,982.3z" class="st11"/><path d="M801.8,559.1c-0.1,0-0.2,0-0.3,0c-0.2-16.2-0.4-32.3-0.6-48.5c-0.2-21.9-0.2-43.8-0.3-65.8 c0-7.5-0.1-15-0.1-22.6c0-2.5-0.7-4.4-2.6-6.3c-40-39.9-79.9-79.8-119.9-119.8c-0.8-0.8-1.6-1.6-2.4-2.3 c-0.6-0.5-1.2-0.3-1.6,0.3c-0.4,0.7-0.8,1.4-1.1,2.1c-4.3,8.9-8.6,17.9-12.9,26.8c-0.3,0.7-0.7,1.4-1,2.2 c-0.5,1.2-0.1,1.7,1.3,1.7c5.9,0.1,11.8,0.8,17.5,2.4c38.5,10.7,58.7,52.3,43.2,89.2c-2,4.7-2.3,4,2.4,6.7 c19.4,10.9,24.4,34.2,15.2,51.5c-6.4,12-20.1,21.9-38.5,20.1c-2-0.2-3.9-1.5-6-0.4c-0.4,2-0.7,4.1-1.1,6.1c0,0.2,0,0.3-0.1,0.5 c-3,20.6-12.5,37.7-28,51.6c-1.3,1.2-3.4,1.9-3.6,3.6c-0.3,2.1,2,3,3.3,4.3c32.2,32.3,64.5,64.5,96.7,96.8 c12.1,12.1,24.2,24.2,36.3,36.3c0.9,0.9,1.8,1.8,2.8,2.7c0.4,0.3,0.8,0.6,1.3,0.2c0.2-0.2,0.4-0.5,0.4-0.8c0-0.8,0-1.6,0-2.4 c-0.2-18.6-0.4-37.1-0.5-55.7C801.8,612.8,801.8,585.9,801.8,559.1z" class="st9"/><path d="M954.9,758.2c0,7,0,14.1,0,21.1c0,63,0,126.1,0,189.1c0,1.8,0.1,3.5,0.2,5.3c0,0.2,0.3,0.6,0.6,0.6 c0.2,0.1,0.6,0,0.8-0.2c0.9-0.9,1.9-1.8,2.7-2.7c15.5-15.7,31-31.5,46.4-47.3c5.8-6,4.7-3.5,4.7-11.7c0-137.4,0-274.8,0-412.3 c0-1.4,0-2.9,0-4.3c0-0.6-0.1-1.3-0.1-1.9c-0.1-0.7-0.9-1.1-1.4-0.7c-0.8,0.5-1.6,1.1-2.3,1.7c-16.4,13.1-32.1,26.9-47,41.7 c-5.5,5.5-4.5,3.2-4.5,10.7C954.9,617.8,954.9,688,954.9,758.2z" class="st9"/><path d="M1274.8,652.9C1274.8,652.9,1274.8,652.9,1274.8,652.9c0.1-8.3,0.3-16.6,0.4-24.9c0-1.3,0.1-2.6,0-3.8 c0-0.2-0.3-0.6-0.6-0.6c-0.2-0.1-0.6,0.1-0.8,0.3c-0.4,0.5-0.8,1-1.1,1.6c-5.7,8.5-11.7,16.8-17.9,24.9c-4.7,6.1-9.6,12-14.3,18 c-1.9,2.4-1.9,2.4-0.2,4.8c2.9,3.9,3.5,8.1,1.7,12.7c-0.4,1-0.8,2.1-1.2,3.1c-14.4,35.4-28.9,70.7-43.3,106.1 c-0.9,2.2-2.8,4.3-2.1,6.7c0.7,2.3,3.2,3.5,4.9,5.1c0.7,0.6,1.5,1.2,2.3,1.8c0.8,0.6,1.8,0.7,2.7,0.3c0.9-0.4,1.8-0.8,2.6-1.1 c11.9-5.1,23.7-10.3,35.6-15.4c24.7-10.5,49.6-20.6,74.7-30c1.5-0.6,3-1.1,4.5-1.5c2.1-0.6,3.8,0,5.1,1.7 c0.9,1.2,1.7,2.3,2.5,3.5c0.4,0.5,0.8,1.1,1.5,0.9c0.3-0.1,0.5-0.7,0.7-1.1c1.4-4.6,2.2-9.4,2.6-14.1 c1.3-17.2-2.2-33.4-10.9-48.4c-0.5-0.8-1-1.6-1.5-2.5c-1.3-2.4-1.1-3,1.4-4.5c1-0.5,2-1,3-1.6c31.7-17.4,54.1-42.9,66.8-76.8 c2.2-5.9,2.2-4.1-0.7-9.2c-3.1-5.4-2.3-5.2-7-1.5c-32.4,25.8-64.8,51.6-97.2,77.4c-1.1,0.9-2.2,1.9-3.4,2.6 c-4.9,3-10.8,0.2-11.6-5.5c-0.1-1.1-0.1-2.2,0-3.4C1274.3,669.8,1274.6,661.4,1274.8,652.9z" class="st0"/><path d="M802.8,742.5c-0.1,0-0.2,0-0.3,0c0-8.2,0-16.3,0-24.5c0-3.2-0.2-6.4,0-9.6c0.1-2.1-0.6-3.7-2.2-5 c-0.4-0.3-0.7-0.7-1-1C753.2,656.3,707,610.2,660.9,564c-0.8-0.8-1.6-1.6-2.4-2.3c-0.7-0.6-1.4-0.7-2.2-0.2 c-1,0.6-1.9,1.2-2.9,1.8c-7.2,4.3-14.8,7.6-22.9,9.6c-10,2.5-20.1,3.4-30.4,2c-0.5-0.1-1.4-0.4-1.5,0.5c-0.1,0.4,0.2,0.9,0.5,1.2 c0.6,0.7,1.3,1.4,2,2.1c65.8,65.8,131.6,131.6,197.4,197.4c0.9,0.9,1.9,1.8,2.8,2.6c0.5,0.4,1.3,0.1,1.3-0.6 c0.1-1.8,0.1-3.5,0.1-5.3C802.8,762.7,802.8,752.6,802.8,742.5z" class="st11"/><path d="M800,355.5c-0.1,0-0.2,0-0.3,0c0-17.1,0-34.2,0-51.3c0-6.2,0.6-4.6-3.5-8.7c-25.6-25.7-51.3-51.3-77-77 c-0.8-0.8-1.6-1.6-2.4-2.4c-1-0.9-1.6-0.8-2.3,0.3c-0.7,1.2-1.4,2.5-2.1,3.8c-11.5,21.2-22.7,42.6-33.5,64.2 c-2.8,5.6-3.2,4,1.5,8.7c38.3,38.3,76.6,76.7,115,115c1.3,1.3,2.4,3,4.3,3.7c1.6-1.8,0.8-3.9,0.8-5.9 C800.4,389,800.2,372.3,800,355.5z" class="st6"/><path d="M1402.8,568.8c0.1-10.2-0.9-19.9-3-29.4c-8.6-39.5-30.2-70-64-92c-0.9-0.6-1.9-1.1-2.9-1.6 c-0.7-0.3-1.2-0.1-1.5,0.6c-1.8,4.1-3.1,8.4-4.4,12.7c-0.7,2.4-0.6,2.5,1.5,3.9c3.8,2.4,7.5,4.9,11,7.7 c7.9,6.4,12.3,14.7,12.6,24.8c0.1,3.5,1.2,5.7,3.6,8.2c11.4,11.9,5.6,31.4-10.1,35.5c-5.4,1.4-10.5,0.8-15.4-1.7 c-2.3-1.1-2.3-1.5-4.4,0.9c-8.7,9.4-17.4,18.8-26.1,28.1c-1,1.1-1.7,2.3-1.7,3.8c-0.2,6.7-2.2,12.9-5,18.9c-1,2.1-1,2.2,1,3.4 c4.7,3,6.6,7.2,5.9,12.7c-0.3,2.7-0.7,5.4-1.1,8.1c-2,14.7-4.1,29.5-6.1,44.2c-0.2,1.8-1.3,3.6,0,5.4c1.9-0.2,3-1.6,4.4-2.6 c29.5-20.9,58.9-41.9,88.4-62.8c1.2-0.8,2.3-1.7,3.5-2.5c2.6-1.6,4.3-1.2,6.1,1.4c0.9,1.3,1.7,2.7,2.5,4.1 c0.1,0.2,0.5,0.4,0.8,0.4c0.3,0,0.6-0.3,0.7-0.6c0.2-0.6,0.4-1.2,0.5-1.8C1401.8,588.6,1402.9,578.6,1402.8,568.8z" class="st0"/><path d="M799.1,184.9c0,0-0.1,0-0.1,0c-0.2-33.7-0.4-67.5-0.6-101.2c0-1.9,0.6-3.8-0.5-5.6c-2.3,0.6-2.8,2.8-3.8,4.4 c-26.4,40.6-51.1,82.3-74.5,124.7c-0.4,0.7-0.7,1.4-1.2,2.1c-0.8,1.3-0.5,2.4,0.6,3.4c0.5,0.4,0.9,0.9,1.4,1.4 c25.2,25.2,50.4,50.4,75.7,75.6c0.9,0.9,1.7,2.6,2.9,2.1c1.6-0.6,0.8-2.5,0.8-3.8c-0.1-28.1-0.4-56.3-0.5-84.4 C799,197.4,799.1,191.2,799.1,184.9z" class="st9"/><path d="M1560.3,301.7c0,17.3,0,34.5,0,51.8c0,1.2-0.6,3,0.6,3.6c1.5,0.7,2.3-1.2,3.3-2.1 c13.5-13.7,26.9-27.4,40.3-41.1c32.7-33.3,65.4-66.6,98.1-100c0.9-0.9,1.7-1.9,2.5-2.9c0.2-0.2,0.1-0.6,0.1-0.9 c0-0.1-0.3-0.1-0.4-0.1c-0.6,0.1-1.3,0.2-1.9,0.3c-16.4,3.7-32.8,7.2-49.1,11c-30,7-59.9,14.7-89.6,22.9 c-4.5,1.2-3.9,1.2-3.9,5.1C1560.3,266.9,1560.3,284.3,1560.3,301.7z" class="st9"/><path d="M1170.4,556.3c-3.8,0.2-11.3,0.5-18.8,0.8c-1.4,0.1-2.9,0.2-4.3,0c-5.5-0.7-8.3-6.4-5.5-11.2 c0.7-1.2,1.7-2.3,2.5-3.5c24.5-32,49-64,73.4-96c1.7-2.2,3.9-4.1,4.7-7c-2.2-2-4.9-2.9-7.3-4.5c-1.8-1.2-3.5-1.3-5.4-0.4 c-1.2,0.5-2.4,1-3.6,1.4c-29.5,12.2-52.5,31.9-69,59.2c-10.9,18-17.3,37.7-19.5,58.6c-1.3,12.3-1,24.6,1,36.8 c1.4,8.7,3.5,17.2,6.5,25.5c0.9,2.3,1.4,2.4,3.3,0.7c0.6-0.5,1.2-1.1,1.7-1.6c21.8-20.5,44.2-40.2,68.7-57.5 c0.5-0.4,1-0.8,1.5-1.2c0.3-0.2,0.3-0.5,0.1-0.8c-0.1-0.1-0.2-0.2-0.3-0.3c-1-0.1-1.9-0.1-2.9-0.1 C1189.4,555.6,1181.7,555.9,1170.4,556.3z" class="st0"/><path d="M1276,452.8c-2.5-0.1-5.5,0.2-8.5,0.7c-7.4,1.2-13.5,4.8-18.2,10.6c-1.8,2.2-2.4,2.9,1.1,4.3 c0.7,0.3,1.4,0.7,2.1,1.1c7.9,4.7,12,14,9.9,23c-1.7,7.6-6.3,12.7-13.5,15.7c-2.4,1-2.5,1-2.2,3.5c0.6,4.4,1.3,8.9,1.9,13.3 c0.7,4.9,1.4,9.8,2.2,14.7c0.3,1.8,1,2.1,2.6,0.9c0.6-0.5,1.3-1,1.9-1.5c16.3-11.5,38.5-4.5,45.3,14.3c0.4,1.1,0.6,2.1,1.1,3.2 c0.3,0.8,0.9,0.7,1.5,0.3c0.4-0.3,0.8-0.6,1.1-0.9c6.3-6.8,12.6-13.6,18.9-20.4c1.5-1.6,1.5-1.7,0.1-3.6c-3.2-4.2-4.7-9-4.6-14.3 c0.2-12.7,12.3-22.8,25.3-20.4c0.8,0.1,1.6,0.4,2.3,0.5c1.5,0.2,2.1-0.3,2-1.8c-0.4-6.9-2.6-13.2-7.2-18.4 c-4.3-4.8-9.7-8.3-15.1-11.6c-0.8-0.5-1.5-0.3-2.2,0.2c-0.4,0.3-0.7,0.6-1.1,0.9c-6,4.3-13.6-0.3-13.6-6.2c0-2.3-0.9-3.6-3.2-4 c-1.1-0.2-2.2-0.5-3.2-0.9c-1.9-0.7-3.1-0.3-4.5,1.3c-4.6,5.2-11.6,4.3-14.5-1.8c-1-2-2-3.1-4.3-2.8 C1278.5,452.9,1277.5,452.8,1276,452.8z" class="st12"/><path d="M1194.5,408.1c0,7.8,0,15.7,0,23.5c0,5.4,0,5.4,4.7,3.3c19.8-8.9,40.6-13.3,62.4-13c8.7,0.1,17.2,1,25.8,2.5 c1.9,0.3,2.4,0,2.7-1.7c1.5-10.5,2-21,0.3-31.5c-2.5-16.2-9.8-29.9-21.7-41.3c-3-2.9-3-2.9-7-1.2c-21.3,9.2-42.4,18.8-63.2,28.9 c-0.6,0.3-1.1,0.6-1.7,0.8c-1.8,0.6-2.3,2-2.2,3.8c0,1.1,0,2.2,0,3.4C1194.5,393,1194.5,400.5,1194.5,408.1z" class="st6"/><path d="M1232.1,668.5c2.4,1.5,3.9-0.6,5.4-2.5c6.2-7.9,12.5-15.8,18.7-23.7c0.7-0.9,1.3-1.8,1.9-2.7 c0.4-0.6,0.2-1.2-0.4-1.6c-1-0.6-1.9-1.1-2.9-1.7c-6.7-3.7-13.1-8-19.1-12.8c-17.5-13.8-31.9-30.3-43.9-49.1 c-0.7-1.1-1.3-2.2-2-3.3c-0.7-1.1-1.2-1.2-2.3-0.3c-4,3.1-8.1,6.3-12.1,9.5c-8.8,7.1-17.4,14.5-25.9,22.1c-3,2.7-3,2.7-1.2,6.5 c2.5,5.4,5.3,10.6,8.5,15.5c13.9,21.9,32,39.4,55.1,51.3c1.6,0.8,3.2,1.5,4.7,2.3c0.9,0.4,1.5,0,1.9-0.8c0.3-0.6,0.5-1.2,0.8-1.8 C1221.9,670.5,1226,668.2,1232.1,668.5z" class="st12"/><path d="M1260,425.7c-6.6-0.1-13.1,0.2-19.6,1.2c-5,0.8-10,1.9-15.1,2.9c-0.5,0.1-0.9,0.4-0.9,0.9 c0,0.3,0.2,0.6,0.5,0.8c1.9,1.1,3.9,2.2,5.8,3.4c2,1.3,2.5,3.4,1.5,5.4c-0.7,1.3-1.5,2.4-2.4,3.6c-20.5,30-40.9,59.9-61.4,89.9 c-0.9,1.3-1.7,2.7-2.6,4c-0.3,0.6,0.2,1.2,0.9,1.2c0.3,0,0.6,0,1-0.1c6.5-1,12.9-2.1,19.4-3.1c12.1-1.9,24.3-3.9,36.4-5.8 c2.3-0.4,4.5,0,6.6,0.7c2,0.7,3.6,2,5,3.6c0.7,0.9,1.6,1,2.6,0.6c1.9-0.8,3.9-1.5,5.8-2.3c2.4-1,2.5-1.1,2.1-3.4 c-0.7-5.1-1.6-10.1-2.2-15.2c-0.6-4.5-1-4.4-4.8-4.9c-10.2-1.2-17.9-9.9-18.4-20.2c-0.5-10.6,6.8-19.8,16.4-21.9 c1.4-0.3,2.8-0.7,4.3-0.7c1.9,0,3-0.8,3.8-2.4c0.1-0.3,0.3-0.5,0.5-0.8c5.7-7.7,13.2-12.4,22.7-13.7c4.5-0.6,8.9-0.5,13.4-0.6 c1.5,0,2.3-0.6,2.8-2.1c1.7-5.2,3.2-10.4,4.4-15.7c0.1-0.3,0.1-0.6,0.2-0.9c0.3-1.2-0.4-1.8-1.4-2.1c-0.6-0.2-1.2-0.3-1.9-0.4 C1276.9,426.4,1268.5,425.5,1260,425.7z" class="st0"/><path d="M1245.7,536.3c-0.3,0-0.6,0-0.9,0.1c-1.9,0.7-3.9,1.5-5.8,2.3c-1,0.4-1.4,1.2-1.3,2.3c0.1,0.6,0.1,1.3,0,1.9 c-0.5,6.1-4.5,10.3-10.6,11.2c-1.3,0.2-2.6,0.2-3.8,0.2c-3.5,0.1-7,0.2-10.6,0.3c-1.5,0-2.9,0.2-4.1,1.1c-5,3.5-10,6.9-14.9,10.5 c-1.4,1-1.5,1.4-0.6,2.8c2.1,3.4,4.2,6.8,6.5,10.1c12.8,18.4,28,34.5,46.5,47.3c4.3,3,8.8,5.8,13.6,8.1c1.5,0.7,1.8,0.7,2.8-0.7 c4.1-6.1,8.2-12.2,12.3-18.3c0.8-1.2,1.1-2.6,1.1-4.1c0-2.9,0-5.8,0.2-8.6c0.3-5.4,3.4-9.5,8.6-10.9c3-0.8,4.6-2.5,5.6-5.1 c0.8-2.2,1.8-4.5,2.5-6.7c0.5-1.5,0.8-3.1,1.1-4.7c0.1-0.3-0.1-0.6-0.2-0.9c-0.4,0.1-0.9,0.1-1.3,0.4c-1,0.8-1.8,1.8-2.8,2.6 c-6.4,5-13.6,6.4-21.3,4.3c-9.7-2.6-15.7-8.9-17.6-18.9c-1-5.5-1.7-11.1-2.5-16.6c-0.4-2.8-0.8-5.7-1.2-8.5 C1246.7,537,1246.4,536.5,1245.7,536.3z" class="st2"/><path d="M1647.6,316.3c11.7,0,23.4,0,35,0c5.5,0,4.6-0.2,5.7-4.5c7-29.7,13.6-59.5,19.4-89.5 c0.5-2.4,0.8-4.7,1.2-7.1c0.1-0.5,0.1-1-0.5-1.1c-0.2,0-0.6,0.1-0.8,0.3c-2.2,2.1-4.3,4.3-6.4,6.5c-30,30.6-60.1,61.2-90.1,91.8 c-0.7,0.7-1.3,1.4-2,2.1c-0.4,0.5,0,1.4,0.6,1.4c1.3,0.1,2.6,0.1,3.8,0.1C1624.9,316.3,1636.3,316.3,1647.6,316.3z" class="st11"/><path d="M1546.4,424.8c-0.2-16.3-12.7-31.3-31.6-31.2c-20.1,0.1-31.3,17.1-31.1,31.6c0.1,14,11.2,30.9,31.3,31 C1533.4,456.2,1546.3,441.6,1546.4,424.8z" class="st0"/><path d="M1172.2,735.2c0.1,0.6-0.1,1.1,0.6,1.2c0.3,0,0.6-0.1,0.9-0.2c0.4-0.3,0.7-0.6,1.1-0.9 c12.5-12.8,24.8-25.9,36.8-39.2c0.9-0.9,1.7-1.9,2.1-3.2c0.9-2.9,1.9-5.8,2.8-8.7c0.5-1.5,0.2-2.1-1.1-2.7 c-2.4-1.2-4.9-2.4-7.3-3.7c-27.5-15-47.8-37.1-61.9-64.9c-0.6-1.1-1.1-2.3-1.7-3.4c-0.6-1.1-1.2-1.3-2.2-0.4 c-4.5,4.1-8.9,8.3-13.3,12.4c-0.9,0.9-1.2,1.8-0.7,3c0.5,1,0.9,2,1.4,3.1c11.9,26,30,46.6,54.1,62c1.1,0.7,2.2,1.3,3.3,2 c1.9,1.2,2.1,2.2,1,4c-0.6,0.9-1.3,1.8-1.9,2.8c-4,5.8-7.2,12.1-9.5,18.8C1174.3,723,1172.9,729.1,1172.2,735.2z" class="st2"/><path d="M802.1,140.2c0.1,0,0.3,0,0.4,0c0,5.8,0,11.5,0,17.3c0.1,13.1,0.1,26.2,0.2,39.3c0,1,0,1.9,0.1,2.9 c0,0.7,0.9,1.1,1.4,0.7c0.7-0.6,1.4-1.3,2.1-1.9c13.8-13.8,27.6-27.6,41.4-41.4c3.3-3.3,3-2.8,0.8-6.3 c-13.7-22.3-27.8-44.5-42.4-66.3c-0.7-1.1-1.4-2.1-2.2-3.1c-0.3-0.4-0.6-0.8-1.2-0.4c-0.2,0.2-0.4,0.5-0.5,0.8 c-0.1,1.4-0.1,2.9-0.1,4.3C802.1,104.1,802.1,122.2,802.1,140.2z" class="st6"/><path d="M1255,826.3c2.6-0.1,6.5-0.2,10.5-0.8c26.9-4.4,46.9-18.6,60.1-42.2c3.8-6.8,3.5-4.8-1.1-10.7 c-1.5-2-1.8-2-4-0.9c-8.3,4.1-16.6,8.2-25,12.2c-23.6,11.3-47.6,22-71.6,32.5c-1.2,0.5-2.3,1.1-3.4,1.7c-0.3,0.2-0.8,0.8-0.1,1.1 c0.8,0.5,1.7,0.9,2.6,1.2C1232.9,824.4,1243,826.5,1255,826.3z" class="st0"/><path d="M1239.3,680.9c0.1-3.7-2.6-7.3-6.1-8.3c-3.7-1.1-7.7,0.2-9.7,3.4c-0.7,1.1-1.1,2.3-1.6,3.5 c-1.2,3.5-2.3,7-3.4,10.5c-10.5,32.4-20.9,64.7-31.5,97c-0.9,2.7-0.9,4.9,1.2,7c1.2,1.2,1.8,3.1,3.6,3.6c1.3-1.1,1.6-2.8,2.2-4.2 c10.7-26.2,21.4-52.3,32-78.5c3.9-9.6,7.8-19.2,11.8-28.8C1238.5,684.3,1239.3,682.7,1239.3,680.9z" class="st2"/><path d="M670.8,812.2c-0.3,10.8,8,22.9,22.6,23.1c13.8,0.2,23.1-11,23.1-22.6c0.1-12.7-10-23-22.6-23.1 C681.2,789.5,670.9,799.6,670.8,812.2z" class="st0"/><path d="M1274.6,578.7c5.1,0,9.8-1.8,13.4-5.3c3.3-3.3,6.4-6.7,9.5-10.1c0.8-0.8,1.2-1.8,1-3 c-1.8-10.5-7.4-17.9-17.6-21.4c-10.2-3.5-19.1-0.8-26.9,6.5c-1.4,1.3-1.8,2.9-1.5,4.8c0.7,4.1,1.2,8.2,1.9,12.3 C1256.2,572.5,1265.7,579.1,1274.6,578.7z" class="st13"/><path d="M1171.9,749.4c0.6,11.3,3.8,23.2,9.1,33c0.4,0.7,0.7,1.4,1.2,2.1c0.3,0.3,0.7,0.6,1.1,0.7 c0.1,0,0.4-0.4,0.5-0.7c0.3-0.9,0.7-1.8,1-2.7c2.4-7.4,4.9-14.9,7.3-22.3c5.4-16.7,10.8-33.4,16.2-50.1c0.3-1.1,0.7-2.1,1-3.2 c0.1-0.3-0.1-0.6-0.1-0.9c-0.3,0.1-0.6,0-0.8,0.2c-0.8,0.8-1.6,1.6-2.3,2.4c-10.1,10.7-20.2,21.3-30.4,32 C1171.6,743.9,1171.6,743.8,1171.9,749.4z" class="st0"/><path d="M1322.6,518.5c-0.2,9.9,8.2,17.7,17.5,17.8c9.7,0,17.9-7.8,17.9-17.5c0-11.4-9.1-18.1-17.8-18 C1329.2,501,1322.3,510,1322.6,518.5z" class="st14"/><path d="M1241.3,505.7c8.1,0.3,17.7-5.9,18-17.3c0.3-9.6-7-18.1-17.7-18.1c-11.9,0-17.8,9.9-17.7,17.6 C1223.8,497.6,1231.6,505.6,1241.3,505.7z" class="st14"/><path d="M1305.4,433.3c-0.8,0.2-0.9,0.8-1.1,1.4c-1.1,5.1-2.3,10.3-3.4,15.4c-0.2,0.9,0.3,1.5,1.2,1.8 c2.1,0.6,4.3,1.3,6.4,1.9c1.5,0.4,2.1,0.1,2.6-1.3c1.8-4.4,3.6-8.9,5.4-13.3c0.5-1.1,0.2-1.9-0.9-2.3c-3.1-1.2-6.3-2.4-9.4-3.6 C1306,433.3,1305.7,433.3,1305.4,433.3z" class="st0"/><path d="M1681,605.5c0.3,8.3-6,17.6-17.5,17.8c-8.8,0.1-17.5-6.3-17.7-17.6c-0.2-9.5,7.7-17.4,17.3-17.6 C1672.9,588,1680.9,595.7,1681,605.5z M1663.4,619.3c7.5,0,13.7-6.3,13.6-13.8c-0.1-7.5-6.5-13.7-13.9-13.5 c-7.3,0.1-13.3,6.2-13.4,13.5C1649.7,613.1,1655.9,619.4,1663.4,619.3z" class="st1"/><path d="M1052.5,286.5c8.2-0.4,17.6,6.3,17.7,17.6c0,10-8.1,17.6-17.8,17.5c-9.7-0.1-17.3-7.9-17.4-17.4 C1034.8,294,1043.5,286.2,1052.5,286.5z M1052.5,317.6c6.7,0.3,13.6-5.1,13.7-13.6c0.1-7.5-6.2-13.6-13.8-13.5 c-7.3,0.1-13.4,6-13.5,13.4C1038.8,312.2,1045.9,317.9,1052.5,317.6z" class="st1"/><path d="M1689.6,522.9c6.1-0.1,10.9,4.7,11,10.8c0.1,6.1-4.7,11-10.8,11.1c-6.1,0.1-10.8-4.7-11-10.8 C1678.6,526.9,1684.8,522.7,1689.6,522.9z M1696.5,533.7c-0.1-3.9-3.3-7-7.1-6.9c-3.8,0.2-6.8,3.5-6.6,7.4 c0.2,3.7,3.2,6.6,6.9,6.6C1693.5,540.8,1696.6,537.6,1696.5,533.7z" class="st1"/><path d="M1617.6,535.8c0.1,6.1-4.6,11-10.7,11.1c-6.1,0.1-11.1-4.7-11.2-10.7c-0.1-5.9,4.8-11,10.8-11.2 C1612.4,524.8,1617.5,529.8,1617.6,535.8z M1613.6,536.1c0.1-3.8-3.2-7.1-6.9-7.1c-3.8,0-7.1,3.3-7,7.1c0.1,3.6,3.1,6.7,6.7,6.9 C1610.1,543.1,1613.5,539.9,1613.6,536.1z" class="st1"/><path d="M1027.3,222c6-0.1,11,4.4,11,10.8c0,6.6-5.1,11-10.9,11c-6.2,0-10.9-4.7-11-10.8 C1016.4,226.8,1021.1,222,1027.3,222z M1027.4,239.7c3.9,0,7-3.2,6.8-7.1c-0.1-3.7-3-6.6-6.8-6.7c-3.9-0.1-7.1,3-7.1,6.9 C1020.4,236.7,1023.6,239.8,1027.4,239.7z" class="st1"/><path d="M1090.8,247.1c0.2,6.7-6,11-10.9,10.8c-6.2-0.2-10.7-4.8-10.8-11c-0.1-5.7,4.4-10.9,11-10.9 C1086.8,236.1,1091.1,241.5,1090.8,247.1z M1079.9,240c-3.8,0.1-6.9,3.3-6.8,7.2c0.1,3.7,3.1,6.7,6.7,6.7c3.9,0.1,7-3,7-6.9 C1086.8,243.1,1083.7,240,1079.9,240z" class="st1"/><path d="M1128.3,321.1c0,3.6-2.8,6.3-6.4,6.3c-3.5,0-6.4-2.8-6.4-6.3c-0.1-3.7,3-6.7,6.6-6.6 C1125.7,314.7,1128.4,317.5,1128.3,321.1z" class="st1"/><path d="M1660.2,503.9c-3.6,0.1-6.4-2.5-6.5-6.1c-0.1-3.5,2.5-6.5,6-6.7c3.7-0.2,6.8,2.7,6.8,6.4 C1666.5,501.1,1663.8,503.8,1660.2,503.9z" class="st1"/><path d="M617.2,446.1c-9.2,0.4-17.6-7.7-17.6-17.6c0-8.5,6.8-17.6,17.8-17.5c9.7,0.1,17.1,7.7,17.3,17.4 C634.9,438.5,626.3,446.5,617.2,446.1z M603.6,428.5c-0.4,7.7,6.6,13.9,13.5,13.8c7.6-0.1,13.7-6.1,13.6-13.7 c0-7.4-5.9-13.4-13.3-13.5C609.8,414.9,603.7,420.8,603.6,428.5z" class="st1"/><path d="M627.3,487.9c0.1,6.2-4.6,11-10.8,11c-6.2,0.1-10.8-4.6-11-10.8c-0.2-5,3.5-11,10.8-11.1 C623.3,477,627.3,482.4,627.3,487.9z M616.2,495c3.8,0.1,7-3,7.1-6.9c0-3.7-2.7-6.8-6.4-7c-3.8-0.3-7.2,2.8-7.3,6.6 C609.4,491.5,612.4,494.8,616.2,495z" class="st1"/><path d="M671.4,441.5c3.5,0,6.3,2.9,6.4,6.4c0,3.7-3,6.7-6.7,6.5c-3.5-0.2-6.2-3-6.1-6.6 C665.1,444.2,667.9,441.4,671.4,441.5z" class="st1"/><path d="M878.4,385.5c-14.8,0.1-29.5-11.6-29.5-29.6c0-16.3,12.7-29.6,29.6-29.5c18.3,0.1,29.6,15,29.5,29.6 C907.9,372.3,894.7,385.5,878.4,385.5z" class="st1"/><path d="M904.3,356.1c0-12.9-9.8-26-25.9-26c-14.6,0-25.7,11.4-25.7,25.6c-0.1,15.6,12.6,26,25.8,26 C892.5,381.7,904.2,370.1,904.3,356.1z" class="st0"/><path d="M1262.1,561.5c0,0,0.4,0,0.7,0.1c5.6,1.8,11.3,3.5,16.9,5.3c1.5,0.5,2.1,1.4,1.9,2.3 c-0.3,1.2-1.4,1.7-3.1,1.2c-5.3-1.6-10.7-3.3-16-5c-0.6-0.2-1.2-0.4-1.7-0.8c-0.5-0.4-0.8-1-0.6-1.7 C1260.3,562.1,1260.8,561.4,1262.1,561.5z" class="st1"/><path d="M1351.6,518.6c0,6.3-4.9,11.3-11.2,11.5c-6.3,0.2-11.7-5.2-11.7-11.5c0-5.5,4.4-11.5,11.8-11.3 C1346.9,507.4,1351.6,512.2,1351.6,518.6z" class="st1"/><path d="M1252.9,488c0.2,6.1-4.7,11.4-11.5,11.5c-6.1,0.1-11.4-5.1-11.4-11.2c0-7.3,5.9-11.7,11.3-11.7 C1247.9,476.7,1252.9,481.5,1252.9,488z" class="st1"/></g></g></switch></svg>